<svg fill-rule="evenodd" stroke-linejoin="round" stroke-miterlimit="2" clip-rule="evenodd" viewBox="0 0 40 40" xmlns="http://www.w3.org/2000/svg"><path fill="none" d="M0 0h39.778v39.778H0z"/><g transform="translate(5 1.333)"><clipPath id="a"><path d="M15.021 5.828a13.769 13.769 0 015.219 1.031c.828.344 1.614.761 2.354 1.261a13.162 13.162 0 012.067 1.692 13.648 13.648 0 011.698 2.058c.495.745.917 1.526 1.261 2.354.338.823.599 1.677.776 2.552a13.724 13.724 0 010 5.307 14.173 14.173 0 01-.776 2.552c-.344.823-.766 1.61-1.261 2.349-.5.745-1.062 1.433-1.698 2.063-.63.63-1.322 1.198-2.067 1.693-.74.494-1.526.916-2.354 1.255-.829.344-1.683.599-2.558.776-.88.172-1.765.26-2.661.26-.896 0-1.781-.088-2.662-.26a13.755 13.755 0 01-4.911-2.031 13.755 13.755 0 01-2.068-1.693 13.444 13.444 0 01-2.953-4.412 13.34 13.34 0 01-.776-2.552 13.36 13.36 0 010-5.307c.172-.875.432-1.729.776-2.552.339-.828.761-1.609 1.255-2.354.5-.74 1.068-1.427 1.698-2.058A13.45 13.45 0 017.448 8.12c.745-.5 1.531-.917 2.354-1.261a13.736 13.736 0 015.219-1.031z"/></clipPath><g clip-path="url(#a)"><path fill="url(#_Radial2)" fill-rule="nonzero" d="M22.422-5.599l-32.484 17.646L7.62 44.453l32.484-17.641L22.422-5.599z"/></g></g><path fill="#fff" fill-rule="nonzero" d="M17.979 22.12a1.67 1.67 0 01-.833.76c-.37.156-.745.177-1.125.068l-5.453-1.52a1.678 1.678 0 01-.865-.569 1.632 1.632 0 01-.375-.964 1.617 1.617 0 01.25-1 1.64 1.64 0 01.781-.67l8.146-3.449a1.646 1.646 0 011.026-.094c.354.073.651.25.896.516.245.265.391.578.432.937.042.36-.02.698-.192 1.016l-2.688 4.968z"/><path fill="#fff" fill-opacity=".69" fill-rule="nonzero" d="M22.146 19.218c.213-.338.505-.573.885-.698a1.65 1.65 0 011.13.006l5.329 1.901c.343.12.614.328.823.625.208.297.312.625.307.984 0 .36-.104.688-.318.98-.208.296-.489.5-.828.62l-8.365 2.87a1.66 1.66 0 01-1.031.025 1.69 1.69 0 01-.859-.578 1.667 1.667 0 01-.365-.964 1.64 1.64 0 01.261-1l3.031-4.77z"/><defs><radialGradient id="_Radial2" cx="0" cy="0" r="1" gradientTransform="matrix(13.6371 24.9933 -25.0518 13.6053 15.021 19.428)" gradientUnits="userSpaceOnUse"><stop offset="0" stop-color="#4220d2"/><stop offset="0" stop-color="#4220d3"/><stop offset=".01" stop-color="#4221d3"/><stop offset=".03" stop-color="#4425d4"/><stop offset=".03" stop-color="#4425d4"/><stop offset=".04" stop-color="#4527d4"/><stop offset=".04" stop-color="#4628d4"/><stop offset=".05" stop-color="#4628d5"/><stop offset=".05" stop-color="#4629d5"/><stop offset=".06" stop-color="#472bd5"/><stop offset=".07" stop-color="#482cd5"/><stop offset=".07" stop-color="#482cd6"/><stop offset=".09" stop-color="#492fd6"/><stop offset=".09" stop-color="#4a30d6"/><stop offset=".11" stop-color="#4b34d7"/><stop offset=".11" stop-color="#4c34d7"/><stop offset=".12" stop-color="#4c35d8"/><stop offset=".12" stop-color="#4c36d8"/><stop offset=".13" stop-color="#4d36d8"/><stop offset=".13" stop-color="#4d37d8"/><stop offset=".13" stop-color="#4e38d8"/><stop offset=".14" stop-color="#4e38d9"/><stop offset=".14" stop-color="#4e39d9"/><stop offset=".15" stop-color="#4f3bd9"/><stop offset=".15" stop-color="#4f3bd9"/><stop offset=".16" stop-color="#503cd9"/><stop offset=".16" stop-color="#503dda"/><stop offset=".17" stop-color="#513eda"/><stop offset=".18" stop-color="#5140da"/><stop offset=".18" stop-color="#5240da"/><stop offset=".19" stop-color="#5242db"/><stop offset=".19" stop-color="#5342db"/><stop offset=".2" stop-color="#5445db"/><stop offset=".21" stop-color="#5445dc"/><stop offset=".23" stop-color="#5649dc"/><stop offset=".23" stop-color="#5649dd"/><stop offset=".24" stop-color="#574cdd"/><stop offset=".25" stop-color="#584cdd"/><stop offset=".25" stop-color="#584ddd"/><stop offset=".25" stop-color="#584ede"/><stop offset=".26" stop-color="#594ede"/><stop offset=".27" stop-color="#5950de"/><stop offset=".27" stop-color="#5a51de"/><stop offset=".27" stop-color="#5a51df"/><stop offset=".28" stop-color="#5a52df"/><stop offset=".29" stop-color="#5b53df"/><stop offset=".29" stop-color="#5b54df"/><stop offset=".29" stop-color="#5c55df"/><stop offset=".3" stop-color="#5c55e0"/><stop offset=".3" stop-color="#5c56e0"/><stop offset=".3" stop-color="#5d57e0"/><stop offset=".31" stop-color="#5d58e0"/><stop offset=".31" stop-color="#5e58e0"/><stop offset=".32" stop-color="#5e59e0"/><stop offset=".32" stop-color="#5e5ae1"/><stop offset=".32" stop-color="#5f5ae1"/><stop offset=".33" stop-color="#5f5ce1"/><stop offset=".34" stop-color="#605de1"/><stop offset=".34" stop-color="#605de1"/><stop offset=".34" stop-color="#605ee2"/><stop offset=".35" stop-color="#615fe2"/><stop offset=".36" stop-color="#6261e2"/><stop offset=".37" stop-color="#6262e3"/><stop offset=".38" stop-color="#6364e3"/><stop offset=".38" stop-color="#6465e3"/><stop offset=".39" stop-color="#6466e4"/><stop offset=".39" stop-color="#6466e4"/><stop offset=".41" stop-color="#6669e4"/><stop offset=".41" stop-color="#666ae5"/><stop offset=".43" stop-color="#686ee5"/><stop offset=".43" stop-color="#686ee6"/><stop offset=".45" stop-color="#6970e6"/><stop offset=".45" stop-color="#6a71e6"/><stop offset=".45" stop-color="#6a72e6"/><stop offset=".46" stop-color="#6a72e7"/><stop offset=".46" stop-color="#6b73e7"/><stop offset=".47" stop-color="#6b75e7"/><stop offset=".47" stop-color="#6c75e7"/><stop offset=".48" stop-color="#6c76e7"/><stop offset=".48" stop-color="#6c77e8"/><stop offset=".48" stop-color="#6d77e8"/><stop offset=".49" stop-color="#6d78e8"/><stop offset=".49" stop-color="#6e79e8"/><stop offset=".5" stop-color="#6e7ae8"/><stop offset=".5" stop-color="#6e7ae9"/><stop offset=".52" stop-color="#707ee9"/><stop offset=".52" stop-color="#707eea"/><stop offset=".54" stop-color="#7181ea"/><stop offset=".54" stop-color="#7281ea"/><stop offset=".55" stop-color="#7283eb"/><stop offset=".55" stop-color="#7383eb"/><stop offset=".56" stop-color="#7385eb"/><stop offset=".57" stop-color="#7486eb"/><stop offset=".57" stop-color="#7487ec"/><stop offset=".57" stop-color="#7588ec"/><stop offset=".58" stop-color="#7588ec"/><stop offset=".59" stop-color="#768bec"/><stop offset=".59" stop-color="#778bed"/><stop offset=".6" stop-color="#778ded"/><stop offset=".61" stop-color="#788ded"/><stop offset=".61" stop-color="#788eed"/><stop offset=".61" stop-color="#788fee"/><stop offset=".62" stop-color="#798fee"/><stop offset=".63" stop-color="#7991ee"/><stop offset=".63" stop-color="#7a92ee"/><stop offset=".64" stop-color="#7a93ef"/><stop offset=".64" stop-color="#7b94ef"/><stop offset=".66" stop-color="#7c97ef"/><stop offset=".66" stop-color="#7c97f0"/><stop offset=".67" stop-color="#7d99f0"/><stop offset=".67" stop-color="#7e99f0"/><stop offset=".68" stop-color="#7e9bf0"/><stop offset=".68" stop-color="#7f9bf1"/><stop offset=".69" stop-color="#7f9df1"/><stop offset=".7" stop-color="#809ff1"/><stop offset=".71" stop-color="#81a1f2"/><stop offset=".72" stop-color="#82a3f2"/><stop offset=".73" stop-color="#82a3f3"/><stop offset=".74" stop-color="#84a6f3"/><stop offset=".75" stop-color="#84a7f3"/><stop offset=".75" stop-color="#84a8f4"/><stop offset=".75" stop-color="#85a8f4"/><stop offset=".76" stop-color="#85a9f4"/><stop offset=".76" stop-color="#86aaf4"/><stop offset=".77" stop-color="#86aaf4"/><stop offset=".77" stop-color="#86abf4"/><stop offset=".77" stop-color="#87acf5"/><stop offset=".78" stop-color="#87acf5"/><stop offset=".78" stop-color="#87adf5"/><stop offset=".82" stop-color="#8ab4f6"/><stop offset=".82" stop-color="#8bb4f7"/><stop offset=".83" stop-color="#8bb6f7"/><stop offset=".83" stop-color="#8cb6f7"/><stop offset=".84" stop-color="#8cb8f8"/><stop offset=".84" stop-color="#8db8f8"/><stop offset=".85" stop-color="#8db9f8"/><stop offset=".86" stop-color="#8ebbf8"/><stop offset=".86" stop-color="#8ebbf8"/><stop offset=".87" stop-color="#8fbdf9"/><stop offset=".87" stop-color="#8fbdf9"/><stop offset=".88" stop-color="#90c0f9"/><stop offset=".89" stop-color="#91c0fa"/><stop offset=".89" stop-color="#91c2fa"/><stop offset=".9" stop-color="#92c2fa"/><stop offset=".91" stop-color="#92c4fa"/><stop offset=".91" stop-color="#93c5fb"/><stop offset=".93" stop-color="#94c7fb"/><stop offset=".94" stop-color="#95c9fc"/><stop offset=".94" stop-color="#95cafc"/><stop offset=".95" stop-color="#96ccfc"/><stop offset=".95" stop-color="#97ccfd"/><stop offset=".96" stop-color="#97cefd"/><stop offset=".96" stop-color="#98cefd"/><stop offset=".97" stop-color="#98d0fd"/><stop offset="1" stop-color="#9ad4fe"/><stop offset="1" stop-color="#9bd4fe"/></radialGradient></defs></svg>
